<?xml version="1.0" encoding="utf-8"?><svg xml:space="preserve" viewBox="0 0 100 100" y="0" x="0" xmlns="http://www.w3.org/2000/svg" id="圖層_1" version="1.1" width="200px" height="200px" xmlns:xlink="http://www.w3.org/1999/xlink" style="width:100%;height:100%;background-size:initial;background-repeat-y:initial;background-repeat-x:initial;background-position-y:initial;background-position-x:initial;background-origin:initial;background-color:initial;background-clip:initial;background-attachment:initial;animation-play-state:paused" ><g class="ldl-scale" style="transform-origin:50% 50%;transform:rotate(0deg) scale(0.8, 0.8);animation-play-state:paused" ><path d="M62.187 13.738l13.12 7.576-8.584 14.869-13.121-7.576z" stroke-miterlimit="10" stroke-width="2.2999539999999996" stroke="#333" fill="#c33737" style="stroke:rgb(51, 51, 51);fill:rgb(195, 55, 55);animation-play-state:paused" ></path>
<path stroke-miterlimit="10" stroke-width="2.3" stroke="#333" fill="#e15b64" d="M79.361 25.111L56.874 12.128a1.872 1.872 0 0 1-.685-2.558l1.158-2.005a1.872 1.872 0 0 1 2.558-.685l22.487 12.983a1.872 1.872 0 0 1 .685 2.558l-1.158 2.005a1.873 1.873 0 0 1-2.558.685z" style="stroke:rgb(51, 51, 51);fill:rgb(225, 91, 100);animation-play-state:paused" ></path>
<path stroke-miterlimit="10" stroke-width="2.3" stroke="#333" fill="#e15b64" d="M58.197 63.917L33.849 49.86a2.441 2.441 0 0 1-.894-3.335l11.131-19.279c2.661-4.61 8.556-6.189 13.166-3.528l11.882 6.86c4.61 2.661 6.189 8.556 3.528 13.166l-11.13 19.279a2.442 2.442 0 0 1-3.335.894z" style="stroke:rgb(51, 51, 51);fill:rgb(225, 91, 100);animation-play-state:paused" ></path>
<path d="M46.023 56.888L28.852 86.629" stroke-miterlimit="10" stroke-linecap="round" stroke-width="2.3" stroke="#333" fill="none" style="stroke:rgb(51, 51, 51);animation-play-state:paused" ></path>
<path stroke-miterlimit="10" stroke-width="2.3" stroke="#000" opacity=".2" d="M46.023 56.888l12.174 7.028a2.441 2.441 0 0 0 3.335-.894l11.131-19.279c2.541-4.401 1.209-9.965-2.927-12.777l4.942-8.56 4.683 2.704c.896.517 2.041.21 2.558-.685l1.158-2.005a1.873 1.873 0 0 0-.685-2.558l-11.244-6.491" style="animation-play-state:paused" ></path>
<metadata xmlns:d="https://loading.io/stock/" style="animation-play-state:paused" ><d:name style="animation-play-state:paused" >pin</d:name>
<d:tags style="animation-play-state:paused" >pin,needle,pushpin,tack,lock,hold,keep,fix,jab,poke,thumbtack</d:tags>
<d:license style="animation-play-state:paused" >by</d:license>
<d:slug style="animation-play-state:paused" >moz9zl</d:slug></metadata></g><!-- generated by https://loading.io/ --></svg>